#!OML:ASF F:\VICON\USERDATA\INSTALL\rory3\rory3.ASF
:FULLY-SPECIFIED
:DEGREES
56
root -0.03313234019508993 17.85803799220904 26.669765330098933 -2.7050366874267397 -2.6094408783064287 -6.782523722037906
lfemur -28.138902520652735 0.5743941934032519 -11.336749232394242
ltibia 52.38728189309249
lfoot -0.4923501101659342 4.985244657725574
ltoes -10.265328812691736
rfemur -5.027686565045686 4.278708367199319 36.0682188354208
rtibia 34.05762397702922
rfoot -6.0259663816734585 0.9666106570247166
rtoes 17.495054757184327
lowerback 1.0 0.7496860423682223 5.43573171888416
upperback 0.9222801409853337 2.797616550019025 2.3419643887614234
thorax -4.5390862195853465 1.078729229253273 -0.7837452579453636
lowerneck -15.879469895480796 -2.665532772688984 -1.9680371096827056
upperneck 23.18017699671552 -4.2427092852249535 -0.5111022626151704
head 10.066773440235846 -1.9832977395960278 -0.4059371154743652
lclavicle -3.05893642769662e-14 -1.3153379466844342e-14
lhumerus -34.64153221312756 2.429971741505629 83.37818348053017
lradius 21.4847544373065
lwrist 1.3956493319211136
lhand -28.515582378852233 24.993395550820633
lfingers nan
lthumb -1.5528688070086099 55.75203208119662
rclavicle -3.0796058290071e-14 -1.2982423859448649e-14
rhumerus -28.27482836440997 -21.014848743372045 -77.63752233087706
rradius 22.17133062520435
rwrist 10.836354573731555
rhand -18.352906064704925 1.0
rfingers nan
rthumb 7.718182318380419 -9.329959820354897
57
root -0.01797667429966654 17.846259876072462 26.793511682759686 -2.3403819990215413 -2.833648898316512 -6.796214059610655
lfemur -28.72284305302599 -0.5046560088636465 -10.924636256169633
ltibia 42.69039227553785
lfoot -0.5268425456042829 7.257033498968982
ltoes -0.8173924998223909
rfemur -3.3279263987971923 4.310742629910119 35.927947370941574
rtibia 32.99082886573578
rfoot -6.853129777121313 1.1157394963992395
rtoes 15.776121964092056
lowerback 1.0 0.9678572210410417 5.4899780552986055
upperback 1.0620032539877922 3.115126450299859 2.0391803106292397
thorax -4.145904859265535 1.2929424466396031 -1.2465215174993716
lowerneck -16.040796054036367 -2.7608942234337484 -1.9192659412676225
upperneck 22.927208343047216 -4.467684382071827 -0.4483474098693684
head 10.021195613089219 -2.0500618042767993 -0.4182333889383481
lclavicle -2.6024715802554146e-15 -4.505040392422921e-15
lhumerus -35.53374033246876 2.3921467884848395 83.40093641135593
lradius 21.79511706780755
lwrist 1.4173565362113048
lhand -28.84619221069406 24.1488438843154
lfingers nan
lthumb -1.7940655773090106 55.01753904756868
rclavicle -2.5786998206665377e-15 -3.95347023888137e-15
rhumerus -26.490592223829164 -18.773849931484683 -78.33302588372668
rradius 23.41933998202468
rwrist 8.261296068839915
rhand -19.388584408968452 1.0
rfingers nan
rthumb 6.732138767815214 -7.222170148546211
58
root 0.009456056866309237 17.830958914545512 27.071694905182156 -1.6612464671406184 -2.760770629891082 -6.823204982408724
lfemur -28.726683773780145 -2.943531316912206 -10.012531552543512
ltibia 31.31211782516717
lfoot -0.9985158888595818 7.9161533245733215
ltoes -6.659855408406771
rfemur -1.479436447084277 4.221427553469556 35.833603336203936
rtibia 31.11598148455294
rfoot -6.982816681650949 0.3485666472570985
rtoes 13.297561782730273
lowerback 1.0 1.0203501830530763 5.400899637560803
upperback 0.9139316595938628 3.2257216883399877 1.9244727403667086
thorax -3.9308646527737614 1.394969543958997 -1.386706161157541
lowerneck -15.986555203532058 -2.7173324440961277 -1.9474583007181918
upperneck 22.846845062326132 -4.4246347192175675 -0.40457931569644306
head 9.995441631999633 -2.0320080747360842 -0.40278312412275064
lclavicle 1.9338872229165425e-14 2.0225010040920075e-14
lhumerus -36.15245781111264 3.3517294803531117 83.04285885071295
lradius 21.657306428743222
lwrist -1.6990097288922432
lhand -24.18268893082468 31.66034377590605
lfingers nan
lthumb 2.73502993514469 62.55550983088805
rclavicle 1.8769109421316165e-14 2.0238383467520055e-14
rhumerus -25.138585274768865 -16.656054133027304 -78.6619312232055
rradius 25.179366854660458
rwrist 6.2024088395483465
rhand -19.5400832066974 1.0
rfingers nan
rthumb 6.5838098072537985 -7.933758805711912
59
root 0.03352361500925821 17.78896729695571 26.876033657603067 -1.394737697326882 -3.119005817687534 -7.190895694545674
lfemur -26.955007451140673 -7.338911122417334 -8.041968041917158
ltibia 19.270867373232022
lfoot -1.5892628617466773 8.286735109309308
ltoes -9.845458095372683
rfemur 0.7882549879628122 4.4411739682703315 35.855884789717734
rtibia 29.10198763595476
rfoot -7.032689953651019 0.5414008136576678
rtoes 11.669434522580021
lowerback 1.0 1.2416882725957834 5.647570879651066
upperback 0.9478998936346977 3.5191465113247795 1.8963603742692094
thorax -3.628348301438127 1.568922572155465 -1.5377805858297628
lowerneck -15.720009767670952 -2.729336652765778 -1.9339758950446542
upperneck 22.578203334262714 -4.493620453264856 -0.3565740122506227
head 9.843804132323127 -2.0517165652962257 -0.40009484230827275
lclavicle 4.14140910506169e-14 2.469459042089275e-14
lhumerus -36.68010674229242 3.96250367499183 82.86038895737188
lradius 20.65485292961111
lwrist -0.29385599975770305
lhand -25.39603828214805 25.393527944904587
lfingers nan
lthumb 1.6633888154185197 56.37171044761867
rclavicle 4.0279354998639015e-14 2.4543689818408413e-14
rhumerus -24.214718653985237 -15.448394857110413 -78.7499800578991
rradius 26.29443482434599
rwrist 5.55325163942815
rhand -19.73907731451306 1.0
rfingers nan
rthumb 6.377758774228702 -6.651410126140661
60
root 0.059448693421976784 17.734340919938326 27.547633305334344 -1.1056568212572542 -3.406640596015963 -7.444021590146264
lfemur -25.322366341927555 -10.580279852733161 -6.361613014321449
ltibia 10.589300059974054
lfoot -2.4492346124830435 8.419905797956567
ltoes -11.015690642748922
rfemur 2.7057022984853294 4.0505184759223365 36.1252620782572
rtibia 28.129441249037658
rfoot -7.138232718625095 0.6309033370110058
rtoes 10.342940658779241
lowerback 1.0 1.3973735214534093 6.1738346299178115
upperback 0.9654700592744129 3.7076240991045695 2.0241928616270832
thorax -3.5573671210935682 1.6965702567205212 -1.6340653839177965
lowerneck -16.231916848879884 -2.857878500020515 -2.0016851723313733
upperneck 22.810036027908488 -4.672457463312523 -0.3592059133709006
head 10.046696059042327 -2.1245087835861973 -0.4286069204118772
lclavicle 3.857636438689415e-14 5.183430221604619e-14
lhumerus -37.09422545527576 3.791502300053651 83.16114226799056
lradius 19.26515291223349
lwrist 3.4715722853569986
lhand -31.823347517537943 18.83954636808327
lfingers nan
lthumb -4.649258477576046 49.66301406790233
rclavicle 3.8171028232270085e-14 5.245593389198657e-14
rhumerus -23.0830495788351 -14.895260863819797 -78.87668774295156
rradius 26.8490023429059
rwrist 5.434274810739266
rhand -20.004907018256333 1.0
rfingers nan
rthumb 6.0996041644898185 -6.230991022086466
